<?xml version="1.0" encoding="UTF-8" standalone="no"?>
<svg
   xmlns:dc="http://purl.org/dc/elements/1.1/"
   xmlns:cc="http://creativecommons.org/ns#"
   xmlns:rdf="http://www.w3.org/1999/02/22-rdf-syntax-ns#"
   xmlns:svg="http://www.w3.org/2000/svg"
   xmlns="http://www.w3.org/2000/svg"
   xmlns:sodipodi="http://sodipodi.sourceforge.net/DTD/sodipodi-0.dtd"
   xmlns:inkscape="http://www.inkscape.org/namespaces/inkscape"
   id="svg2"
   width="1000"
   height="1000"
   version="1.1"
   sodipodi:docname="start-here-kde-logo.svg"
   inkscape:version="0.92.4 (5da689c313, 2019-01-14)">
  <metadata
     id="metadata14">
    <rdf:RDF>
      <cc:Work
         rdf:about="">
        <dc:format>image/svg+xml</dc:format>
        <dc:type
           rdf:resource="http://purl.org/dc/dcmitype/StillImage" />
        <dc:title />
      </cc:Work>
    </rdf:RDF>
  </metadata>
  <defs
     id="defs12" />
  <sodipodi:namedview
     pagecolor="#ffffff"
     bordercolor="#666666"
     borderopacity="1"
     objecttolerance="10"
     gridtolerance="10"
     guidetolerance="10"
     inkscape:pageopacity="0"
     inkscape:pageshadow="2"
     inkscape:window-width="3744"
     inkscape:window-height="1653"
     id="namedview10"
     showgrid="false"
     inkscape:zoom="0.61458333"
     inkscape:cx="-309.15253"
     inkscape:cy="201.76271"
     inkscape:window-x="0"
     inkscape:window-y="0"
     inkscape:window-maximized="1"
     inkscape:current-layer="svg2" />
  <path
     id="rect4140"
     style="opacity:1;fill:#000000;fill-opacity:1;stroke:none;stroke-width:20;stroke-linecap:round;stroke-linejoin:miter;stroke-miterlimit:4;stroke-dasharray:none;stroke-opacity:1"
     d="m 499.61352,303.55932 -0.93555,38.92187 v 190.98829 l 60,-9.34766 v -48.83984 l 42.09766,60.14062 109.21875,152.13672 h 2.68359 v -384 z"
     inkscape:connector-curvature="0" />
  <path
     id="path4140"
     style="opacity:0.05;fill:#000000;fill-opacity:1"
     d="m 548.67797,352.55691 -40,3.9784 v 170.25601 l 40,-6.232 v -72 l 56,80 47.544,-16 -63.544,-72 64,-72.00001 -48,-16 -56,80.00001 z"
     inkscape:connector-curvature="0" />
  <path
     id="path4141"
     style="opacity:0.05;fill:#000000;fill-opacity:1"
     d="m 548.67797,351.55691 -40,3.9784 v 170.25601 l 40,-6.232 v -72 l 56,80 47.544,-16 -63.544,-72 64,-72.00001 -48,-16 -56,80.00001 z"
     inkscape:connector-curvature="0" />
  <path
     id="path4139"
     style="opacity:0.05;fill:#000000;fill-opacity:1"
     d="m 548.67797,350.55691 -40,3.9784 v 170.25601 l 40,-6.232 v -72 l 56,80 47.544,-16 -63.544,-72 64,-72.00001 -48,-16 -56,80.00001 z"
     inkscape:connector-curvature="0" />
  <path
     id="path4137"
     style="opacity:0.05;fill:#000000;fill-opacity:1"
     d="m 548.67797,349.55691 -40,3.9784 v 170.25601 l 40,-6.232 v -72 l 56,80 47.544,-16 -63.544,-72 64,-72.00001 -48,-16 -56,80.00001 z"
     inkscape:connector-curvature="0" />
  <path
     id="path4135"
     style="opacity:0.05;fill:#000000;fill-opacity:1"
     d="m 548.67797,348.55691 -40,3.9784 v 170.25601 l 40,-6.232 v -72 l 56,80 47.544,-16 -63.544,-72 64,-72.00001 -48,-16 -56,80.00001 z"
     inkscape:connector-curvature="0" />
  <path
     id="path14"
     style="fill:#ffffff"
     d="m 548.67797,347.55691 -40,3.9784 v 170.25601 l 40,-6.232 v -72 l 56,80 47.544,-16 -63.544,-72 64,-72.00001 -48,-16 -56,80.00001 z"
     inkscape:connector-curvature="0" />
  <text
     xml:space="preserve"
     style="font-style:normal;font-weight:normal;font-size:40px;line-height:1.25;font-family:sans-serif;letter-spacing:0px;word-spacing:0px;fill:#000000;fill-opacity:1;stroke:none"
     x="158.24245"
     y="975.8028"
     id="text752"><tspan
       sodipodi:role="line"
       id="tspan750"
       x="158.24245"
       y="975.8028"
       style="font-style:normal;font-variant:normal;font-weight:normal;font-stretch:normal;font-size:192px;font-family:'Ubuntu Condensed';-inkscape-font-specification:'Ubuntu Condensed, ';fill:#ffffff">DVKBuntu</tspan></text>
  <path
     inkscape:connector-curvature="0"
     d="m 995.3753,880.0985 c 0.31,19.66 -12.37,38.62 -30.54,46.06 -17.85,7.73 -40.02,3.75 -53.94999,-9.87 -14.109,-13.11 -19.259,-34.71 -12.672,-52.8 6.369,-18.75 24.78199,-32.5662 44.59199,-33.3089 19.26,-1.2441 38.5,9.9189 47.1,27.1689 3.6,7 5.48,14.87 5.47,22.75 z"
     id="path2"
     style="fill:#ffffff" />
  <path
     inkscape:connector-curvature="0"
     style="fill:#000000"
     d="m 929.0053,897.9585 c 0.56,-12.29 1.13,-24.57 1.7,-36.86 -3.77,-3.43 -7.54,-6.86 -11.3,-10.29 -1.78,0.18 -2.8,2.43 -4.24999,3.49 -1.64,1.13 -2.61,2.76 -0.89,4.34 1.69,2.79 3.38999,5.58 5.07999,8.37 -1.82,2.57 -1.64,6.81 -5.61999,6.49 -2.83,0.69 -5.81,1.01 -8.555,1.94 -0.246,2.68 -0.254,5.54 0,8.22 3.645,1.23 7.525,1.89 11.26499,2.9 0.31,3.41 4.25,6.54 0.96,9.37 -1.51999,2.5 -3.41999,4.84 -4.69999,7.45 1.72,2.07 3.72999,4.09 5.80999,5.82 2.11,-1.46 3.66,-3.91 5.55,-5.76 1.65,-1.83 3.3,-3.65 4.96,-5.48 z"
     id="path4" />
  <path
     inkscape:connector-curvature="0"
     style="fill:#000000"
     d="m 937.5853,857.1485 c 10.53,6.45 21.05,12.91 31.58,19.36 4.94,-1.08 9.88,-2.17 14.82,-3.25 0.77,-1.61 -0.61,-3.65 -0.77,-5.44 -0.11,-1.98 -1,-3.66 -3.24,-3.01 -3.27,0 -6.53,0 -9.8,0 -1.25,-2.9 -4.96,-4.95 -2.63,-8.17 0.88,-2.79 2.17,-5.5 2.8,-8.32 -2.17,-1.61 -4.6,-3.1 -7.03,-4.28 -2.94,2.47 -5.52,5.44 -8.32,8.11 -3.08,-1.5 -7.8,0.24 -8.51,-4.04 -1.35,-2.6 -2.36,-5.44 -3.92,-7.89 -2.66,0.39 -5.44,1.06 -7.99,1.94 0.12,3.06 1.25,6.18 1.77,9.26 0.41,1.91 0.83,3.83 1.24,5.74 z"
     id="path6" />
  <path
     inkscape:connector-curvature="0"
     style="fill:#000000"
     d="m 968.5453,885.2085 c -10.62,5.83 -21.24,11.65 -31.86,17.47 -1.29,4.86 -2.57,9.72 -3.86,14.59 1.04,1.45 3.5,1.21 5.14,1.94 1.8,0.85 3.7,0.88 4.21,-1.4 1.57,-2.86 3.14,-5.72 4.71,-8.58 3.14,0.29 6.73,-1.98 8.44,1.63 2.01,2.1 3.77,4.54 5.95,6.44 2.44,-1.12 4.92,-2.54 7.12,-4.09 -0.75,-3.77 -2.11,-7.47 -3.1,-11.21 2.79,-1.97 3.54,-6.94 7.63,-5.51 2.93,0.1 5.91,0.54 8.81,0.36 0.93,-2.53 1.68,-5.28 2.14,-7.94 -2.32,-1.12 -5.21,-1.26 -7.75,-2 -2.53,-0.56 -5.06,-1.13 -7.58,-1.7 z"
     id="path8" />
  <path
     inkscape:connector-curvature="0"
     d="m 969.5153,880.0985 c 0.29,12.22 -10.08,23.41 -22.28,24.06 -12.17,1.23 -24.12,-8.26 -25.71,-20.38 -2.1,-11.85 6.12,-24.29 17.82,-27.05 11.6,-3.26 24.8,3.69 28.7,15.08 0.97,2.65 1.47,5.47 1.47,8.29 z"
     id="path10"
     style="fill:#ffffff" />
  <ellipse
     style="fill:#000080;stroke-width:0.27832812"
     id="path4553"
     cx="944.14923"
     cy="852.40631"
     rx="6.4219999"
     ry="6.4489999" />
  <path
     style="fill:#000080;stroke:#000000;stroke-width:0.29666936px;stroke-linecap:butt;stroke-linejoin:miter;stroke-opacity:1"
     d="m 980.5969,859.4487 -0.1483,3.4116 -25.3659,8.8999 v 12.3114 l 14.9822,31.0013 -4.3019,0.1484 -20.0257,-27.738 -16.6138,27.5896 h -3.115 l 9.7903,-29.9629 0.1483,-13.4982 -25.06901,-8.7515 v -3.2633 l 33.37601,3.8566 z"
     id="path4557"
     inkscape:connector-curvature="0" />
</svg>
