<?xml version="1.0" encoding="UTF-8" standalone="no"?>
<svg
   xmlns:dc="http://purl.org/dc/elements/1.1/"
   xmlns:cc="http://creativecommons.org/ns#"
   xmlns:rdf="http://www.w3.org/1999/02/22-rdf-syntax-ns#"
   xmlns:svg="http://www.w3.org/2000/svg"
   xmlns="http://www.w3.org/2000/svg"
   xmlns:sodipodi="http://sodipodi.sourceforge.net/DTD/sodipodi-0.dtd"
   xmlns:inkscape="http://www.inkscape.org/namespaces/inkscape"
   id="svg2"
   width="1000"
   height="1000"
   version="1.1"
   sodipodi:docname="start-here-kde-logo.svg"
   inkscape:version="0.92.5 (2060ec1f9f, 2020-04-08)">
  <metadata
     id="metadata14">
    <rdf:RDF>
      <cc:Work
         rdf:about="">
        <dc:format>image/svg+xml</dc:format>
        <dc:type
           rdf:resource="http://purl.org/dc/dcmitype/StillImage" />
        <dc:title></dc:title>
      </cc:Work>
    </rdf:RDF>
  </metadata>
  <defs
     id="defs12" />
  <sodipodi:namedview
     pagecolor="#000000"
     bordercolor="#666666"
     borderopacity="1"
     objecttolerance="10"
     gridtolerance="10"
     guidetolerance="10"
     inkscape:pageopacity="0"
     inkscape:pageshadow="2"
     inkscape:window-width="3840"
     inkscape:window-height="1758"
     id="namedview10"
     showgrid="false"
     inkscape:zoom="0.86915208"
     inkscape:cx="447.70121"
     inkscape:cy="255.38743"
     inkscape:window-x="0"
     inkscape:window-y="113"
     inkscape:window-maximized="1"
     inkscape:current-layer="g1389" />
  <text
     xml:space="preserve"
     style="font-style:normal;font-weight:normal;font-size:40px;line-height:1.25;font-family:sans-serif;letter-spacing:0px;word-spacing:0px;fill:#000000;fill-opacity:1;stroke:none"
     x="16.242447"
     y="929.8028"
     id="text752"><tspan
       sodipodi:role="line"
       id="tspan750"
       x="16.242447"
       y="929.8028"
       style="font-style:normal;font-variant:normal;font-weight:normal;font-stretch:normal;font-size:192px;font-family:'Ubuntu Condensed';-inkscape-font-specification:'Ubuntu Condensed, ';fill:#ffffff">DVKBuntu</tspan></text>
  <g
     id="g1389"
     transform="matrix(3.6392051,0,0,3.8404292,-2909.5908,-2884.7487)">
    <ellipse
       ry="6.4489999"
       rx="6.4219999"
       cy="852.40631"
       cx="937.5545"
       id="path4553"
       style="fill:#000080;stroke-width:0.27832812" />
    <path
       inkscape:connector-curvature="0"
       id="path4557"
       d="m 974.00206,859.4487 -0.1483,3.4116 -25.3659,8.8999 v 12.3114 l 14.9822,31.0013 -4.3019,0.1484 -20.0257,-27.738 -16.6138,27.5896 h -3.115 l 9.7903,-29.9629 0.1483,-13.4982 -25.06901,-8.7515 v -3.2633 l 33.37601,3.8566 z"
       style="fill:#000080;stroke:#000000;stroke-width:0.29666936px;stroke-linecap:butt;stroke-linejoin:miter;stroke-opacity:1" />
    <g
       style="font-style:normal;font-weight:normal;font-size:40px;line-height:1.25;font-family:sans-serif;letter-spacing:0px;word-spacing:0px;fill:#ffffff;fill-opacity:1;stroke:none"
       id="g1084"
       transform="matrix(0.2062511,0,0,0.1148458,809.8954,899.3218)">
      <path
         inkscape:connector-curvature="0"
         id="path1043"
         d="m 1039.5173,780.72255 c 0,0 -124.41204,148.23989 -123.24385,147.98735 1.16818,-0.25253 123.04915,-17.17259 123.04915,-17.17259 l -37.9661,32.32488 89.1717,-48.73986 -113.50897,5.80838 z"
         style="fill:#ffffff;fill-opacity:1;stroke:#000000;stroke-width:0.87804604px;stroke-linecap:butt;stroke-linejoin:miter;stroke-opacity:1" />
      <g
         id="flowRoot1053"
         style="font-style:normal;font-weight:normal;font-size:40px;line-height:1.25;font-family:sans-serif;letter-spacing:0px;word-spacing:0px;fill:#ffffff;fill-opacity:1;stroke:none"
         transform="matrix(2.0863632,0,0,2.1525923,-709.22487,-1096.4326)"
         aria-label="IGHT">
        <path
           id="path1069"
           style="font-style:italic;font-variant:normal;font-weight:600;font-stretch:normal;font-family:Luciole;-inkscape-font-specification:'Luciole Semi-Bold Italic';fill:#ffffff"
           d="m 850.82133,912.85454 -1.76,6.56 h -17.72 l 1.76,-6.56 h 4.52 l 4.68,-17.4 h -4.52 l 1.72,-6.56 h 17.72 l -1.72,6.56 h -4.48 l -4.68,17.4 z"
           inkscape:connector-curvature="0" />
        <path
           id="path1071"
           style="font-style:italic;font-variant:normal;font-weight:600;font-stretch:normal;font-family:Luciole;-inkscape-font-specification:'Luciole Semi-Bold Italic';fill:#ffffff"
           d="m 871.42132,901.97454 h 12.52 l -4.12,15.36 q -3.24,1.28 -6,1.88 -2.72,0.6 -5.48,0.6 -3.56,0 -6.24,-1.44 -2.68,-1.44 -4.04,-4.12 -1.16,-2.32 -1.28,-5.36 -0.08,-3.04 0.92,-6.76 1.76,-6.56 6.6,-10.08 4.88,-3.56 12.04,-3.56 3,0 5.16,0.4 2.2,0.36 4.68,1.4 l -2.08,7.72 q -1.88,-1.36 -3.76,-2 -1.88,-0.64 -4.08,-0.64 -4.12,0 -6.68,2.16 -2.52,2.12 -3.72,6.6 -1.16,4.36 -0.04,6.64 1.16,2.24 4.52,2.24 0.48,0 1,-0.04 0.52,-0.08 0.96,-0.2 l 1.16,-4.24 h -3.8 z"
           inkscape:connector-curvature="0" />
        <path
           id="path1073"
           style="font-style:italic;font-variant:normal;font-weight:600;font-stretch:normal;font-family:Luciole;-inkscape-font-specification:'Luciole Semi-Bold Italic';fill:#ffffff"
           d="m 897.5813,907.41454 -3.2,12 h -8.72 l 8.16,-30.52 h 8.72 l -3.08,11.56 h 8.64 l 3.08,-11.56 h 8.72 l -8.16,30.52 h -8.72 l 3.2,-12 z"
           inkscape:connector-curvature="0" />
        <path
           id="path1075"
           style="font-style:italic;font-variant:normal;font-weight:600;font-stretch:normal;font-family:Luciole;-inkscape-font-specification:'Luciole Semi-Bold Italic';fill:#ffffff"
           d="m 937.74124,895.85454 -6.32,23.56 h -8.64 l 6.32,-23.56 h -7.84 l 1.84,-6.96 h 24.32 l -1.84,6.96 z"
           inkscape:connector-curvature="0" />
      </g>
    </g>
  </g>
  <path
     inkscape:connector-curvature="0"
     d="m 851.7276,837.74327 c 0.31,19.66 -12.37,38.62 -30.54,46.06 -17.85,7.72999 -40.02,3.75 -53.95,-9.87 -14.109,-13.11 -19.259,-34.71 -12.672,-52.8 6.369,-18.75 24.782,-32.5662 44.592,-33.3089 19.26,-1.2441 38.5,9.9189 47.1,27.1689 3.6,7 5.48,14.87 5.47,22.75 z"
     id="path2-2"
     style="fill:#ffffff" />
  <path
     inkscape:connector-curvature="0"
     style="fill:#000000"
     d="m 785.3576,855.60327 c 0.56,-12.29 1.13,-24.57 1.7,-36.86 -3.77,-3.43 -7.54,-6.86 -11.3,-10.29 -1.78,0.18 -2.8,2.43 -4.25,3.49 -1.64,1.13 -2.61,2.76 -0.89,4.34 1.69,2.79 3.39,5.58 5.08,8.37 -1.82,2.57 -1.64,6.81 -5.62,6.49 -2.83,0.69 -5.81,1.01 -8.555,1.94 -0.246,2.68 -0.254,5.54 0,8.22 3.645,1.23 7.525,1.89 11.265,2.9 0.31,3.41 4.25,6.54 0.96,9.37 -1.52,2.5 -3.42,4.84 -4.7,7.45 1.72,2.07 3.73,4.09 5.81,5.82 2.11,-1.46 3.66,-3.91 5.55,-5.76 1.65,-1.83 3.3,-3.65 4.96,-5.48 z"
     id="path4-9" />
  <path
     inkscape:connector-curvature="0"
     style="fill:#000000"
     d="m 793.9376,814.79327 c 10.53,6.45 21.05,12.91 31.58,19.36 4.94,-1.08 9.88,-2.17 14.82,-3.25 0.77,-1.61 -0.61,-3.65 -0.77,-5.44 -0.11,-1.98 -1,-3.66 -3.24,-3.01 -3.27,0 -6.53,0 -9.8,0 -1.25,-2.9 -4.96,-4.95 -2.63,-8.17 0.88,-2.79 2.17,-5.5 2.8,-8.32 -2.17,-1.61 -4.6,-3.1 -7.03,-4.28 -2.94,2.47 -5.52,5.44 -8.32,8.11 -3.08,-1.5 -7.8,0.24 -8.51,-4.04 -1.35,-2.6 -2.36,-5.44 -3.92,-7.89 -2.66,0.39 -5.44,1.06 -7.99,1.94 0.12,3.06 1.25,6.18 1.77,9.26 0.41,1.91 0.83,3.83 1.24,5.74 z"
     id="path6-1" />
  <path
     inkscape:connector-curvature="0"
     style="fill:#000000"
     d="m 824.8976,842.85327 c -10.62,5.83 -21.24,11.65 -31.86,17.47 -1.29,4.86 -2.57,9.72 -3.86,14.59 1.04,1.45 3.5,1.21 5.14,1.94 1.8,0.85 3.7,0.88 4.21,-1.4 1.57,-2.86 3.14,-5.72 4.71,-8.58 3.14,0.29 6.73,-1.98 8.44,1.63 2.01,2.1 3.77,4.54 5.95,6.44 2.44,-1.12 4.92,-2.54 7.12,-4.09 -0.75,-3.77 -2.11,-7.47 -3.1,-11.21 2.79,-1.97 3.54,-6.94 7.63,-5.51 2.93,0.1 5.91,0.54 8.81,0.36 0.93,-2.53 1.68,-5.28 2.14,-7.94 -2.32,-1.12 -5.21,-1.26 -7.75,-2 -2.53,-0.56 -5.06,-1.13 -7.58,-1.7 z"
     id="path8-2" />
  <path
     inkscape:connector-curvature="0"
     d="m 825.8676,837.74327 c 0.29,12.22 -10.08,23.41 -22.28,24.06 -12.17,1.23 -24.12,-8.26 -25.71,-20.38 -2.1,-11.85 6.12,-24.29 17.82,-27.05 11.6,-3.26 24.8,3.69 28.7,15.08 0.97,2.65 1.47,5.47 1.47,8.29 z"
     id="path10-7"
     style="fill:#ffffff" />
  <ellipse
     style="fill:#000080;stroke-width:0.27832812"
     id="path4553-0"
     cx="800.50159"
     cy="810.05109"
     rx="6.4219999"
     ry="6.4489999" />
  <path
     style="fill:#000080;stroke:#000000;stroke-width:0.29666936px;stroke-linecap:butt;stroke-linejoin:miter;stroke-opacity:1"
     d="m 836.9492,817.09347 -0.1483,3.4116 -25.3659,8.8999 v 12.3114 l 14.9822,31.0013 -4.3019,0.1484 -20.0257,-27.738 -16.6138,27.5896 h -3.115 l 9.7903,-29.9629 0.1483,-13.4982 -25.069,-8.7515 v -3.2633 l 33.376,3.8566 z"
     id="path4557-9"
     inkscape:connector-curvature="0" />
</svg>
