<?xml version="1.0" encoding="UTF-8" standalone="no"?>
<svg
   xmlns:dc="http://purl.org/dc/elements/1.1/"
   xmlns:cc="http://creativecommons.org/ns#"
   xmlns:rdf="http://www.w3.org/1999/02/22-rdf-syntax-ns#"
   xmlns:svg="http://www.w3.org/2000/svg"
   xmlns="http://www.w3.org/2000/svg"
   xmlns:sodipodi="http://sodipodi.sourceforge.net/DTD/sodipodi-0.dtd"
   xmlns:inkscape="http://www.inkscape.org/namespaces/inkscape"
   id="svg2"
   width="384"
   height="384"
   version="1.1"
   sodipodi:docname="start-here-kde-animation.svg"
   inkscape:version="0.92.5 (2060ec1f9f, 2020-04-08)">
  <metadata
     id="metadata8">
    <rdf:RDF>
      <cc:Work
         rdf:about="">
        <dc:format>image/svg+xml</dc:format>
        <dc:type
           rdf:resource="http://purl.org/dc/dcmitype/StillImage" />
        <dc:title></dc:title>
      </cc:Work>
    </rdf:RDF>
  </metadata>
  <defs
     id="defs6" />
  <sodipodi:namedview
     pagecolor="#000000"
     bordercolor="#666666"
     borderopacity="1"
     objecttolerance="10"
     gridtolerance="10"
     guidetolerance="10"
     inkscape:pageopacity="0"
     inkscape:pageshadow="2"
     inkscape:window-width="3840"
     inkscape:window-height="1758"
     id="namedview4"
     showgrid="false"
     inkscape:zoom="2.4583333"
     inkscape:cx="232.83754"
     inkscape:cy="148.42222"
     inkscape:window-x="0"
     inkscape:window-y="113"
     inkscape:window-maximized="1"
     inkscape:current-layer="svg2" />
  <path
     style="fill:#ffffff;stroke-width:3.60758638"
     id="path2"
     d="m 372.76245,191.68053 c 1.1168,71.02338 -44.56413,139.51796 -110.02332,166.39558 C 198.43278,386.00137 118.56322,371.62329 68.379084,322.41991 17.550043,275.05895 -1.0033245,197.02716 22.726976,131.67554 45.671917,63.939606 112.00649,14.027436 183.37393,11.344368 c 69.38601,-4.4944165 138.69997,35.832846 169.6823,98.149912 12.96935,25.28807 19.74224,53.7191 19.70622,82.18625 z"
     inkscape:connector-curvature="0" />
  <path
     id="path4"
     d="m 133.6581,256.20127 c 2.01746,-44.39865 4.07094,-88.76116 6.12441,-133.1598 -13.58178,-12.39118 -27.16357,-24.782333 -40.709343,-37.17349 -6.412614,0.650268 -10.087263,8.778573 -15.310991,12.607917 -5.908262,4.082213 -9.402782,9.970723 -3.206318,15.678613 6.088392,10.07911 12.212767,20.1582 18.301155,30.23731 -6.556718,9.28435 -5.908258,24.60169 -20.246557,23.44567 -10.195348,2.49267 -20.931085,3.64871 -30.820215,7.0084 -0.886234,9.68173 -0.915061,20.01372 0,29.69544 13.131473,4.44348 27.109542,6.82778 40.583217,10.47649 1.116811,12.31891 15.311032,23.62629 3.458496,33.84989 -5.475916,9.03147 -12.32085,17.48491 -16.932171,26.91375 6.196463,7.47805 13.437651,14.77547 20.931056,21.02524 7.601471,-5.27438 13.185501,-14.1252 19.994401,-20.80848 5.9443,-6.61103 11.88858,-13.18594 17.86889,-19.79695 z"
     style="fill:#000000;stroke-width:3.60758638"
     inkscape:connector-curvature="0" />
  <path
     id="path6"
     d="m 164.56838,108.77176 c 37.93534,23.30116 75.83466,46.63844 113.77,69.9396 17.79682,-3.90159 35.59366,-7.8393 53.39049,-11.74089 2.77399,-5.81627 -2.19759,-13.18593 -2.774,-19.65246 -0.39629,-7.1529 -3.6026,-13.22205 -11.67242,-10.87387 -11.78048,0 -23.52495,0 -35.30544,0 -4.50326,-10.47649 -17.86888,-17.88229 -9.47484,-29.5148 3.17029,-10.079103 7.81763,-19.869209 10.08728,-30.056692 -7.81763,-5.816258 -16.57195,-11.199007 -25.32626,-15.461849 -10.59163,8.92308 -19.88633,19.652446 -29.97361,29.298047 -11.096,-5.418881 -28.10025,0.867017 -30.65809,-14.594841 -4.86351,-9.392709 -8.50213,-19.652447 -14.12217,-28.503274 -9.58291,1.408902 -19.59814,3.829333 -28.78475,7.008409 0.43231,11.054501 4.50324,22.32576 6.37659,33.452514 1.47706,6.900034 2.99015,13.836206 4.46722,20.736226 z"
     style="fill:#000000;stroke-width:3.60758638"
     inkscape:connector-curvature="0" />
  <path
     id="path8"
     d="m 276.10477,210.14083 c -38.25957,21.06136 -76.51915,42.08659 -114.77873,63.11182 -4.64736,17.55717 -9.25868,35.11431 -13.90602,52.70759 3.7467,5.23825 12.60909,4.37123 18.51734,7.00842 6.48468,3.07069 13.32961,3.17906 15.16694,-5.05762 5.65608,-10.33198 11.31215,-20.66398 16.96822,-30.99596 11.31217,1.04765 24.24548,-7.15292 30.40592,5.8885 7.24122,7.58642 13.5818,16.40113 21.43545,23.26505 8.79034,-4.0461 17.72478,-9.17596 25.65049,-14.77548 -2.70195,-13.61944 -7.60147,-26.986 -11.16804,-40.49705 10.05124,-7.11679 12.75318,-25.07132 27.4878,-19.90533 10.55561,0.36126 21.29134,1.95079 31.73889,1.30053 3.35041,-9.13984 6.05235,-19.07444 7.70955,-28.68391 -8.35803,-4.04609 -18.76953,-4.55186 -27.92013,-7.22516 -9.11456,-2.02306 -18.22913,-4.08222 -27.30768,-6.1414 z"
     style="fill:#000000;stroke-width:3.60758638"
     inkscape:connector-curvature="0" />
  <path
     style="fill:#ffffff;stroke-width:3.60758638"
     id="path10"
     d="m 279.59929,191.68053 c 1.04475,44.14577 -36.31417,84.57057 -80.26586,86.91875 -43.84359,4.44347 -86.89462,-29.83994 -92.62275,-73.62445 -7.565466,-42.8091 22.0479,-87.74964 64.19826,-97.72036 41.79013,-11.77702 89.3444,13.33042 103.39453,54.47776 3.49452,9.57334 5.29582,19.76082 5.29582,29.9483 z"
     inkscape:connector-curvature="0" />
</svg>
