<?xml version="1.0" encoding="UTF-8" standalone="no"?>
<svg
   xmlns:dc="http://purl.org/dc/elements/1.1/"
   xmlns:cc="http://creativecommons.org/ns#"
   xmlns:rdf="http://www.w3.org/1999/02/22-rdf-syntax-ns#"
   xmlns:svg="http://www.w3.org/2000/svg"
   xmlns="http://www.w3.org/2000/svg"
   xmlns:sodipodi="http://sodipodi.sourceforge.net/DTD/sodipodi-0.dtd"
   xmlns:inkscape="http://www.inkscape.org/namespaces/inkscape"
   version="1.1"
   viewBox="0 0 16 16"
   id="svg5"
   sodipodi:docname="transform.svg"
   inkscape:version="0.92.4 (5da689c313, 2019-01-14)">
  <metadata
     id="metadata11">
    <rdf:RDF>
      <cc:Work
         rdf:about="">
        <dc:format>image/svg+xml</dc:format>
        <dc:type
           rdf:resource="http://purl.org/dc/dcmitype/StillImage" />
        <dc:title />
      </cc:Work>
    </rdf:RDF>
  </metadata>
  <defs
     id="defs9" />
  <sodipodi:namedview
     pagecolor="#ffffff"
     bordercolor="#666666"
     borderopacity="1"
     objecttolerance="10"
     gridtolerance="10"
     guidetolerance="10"
     inkscape:pageopacity="0"
     inkscape:pageshadow="2"
     inkscape:window-width="1920"
     inkscape:window-height="873"
     id="namedview7"
     showgrid="true"
     inkscape:zoom="7.375"
     inkscape:cx="-11.587801"
     inkscape:cy="12.620637"
     inkscape:window-x="0"
     inkscape:window-y="54"
     inkscape:window-maximized="1"
     inkscape:current-layer="transform-move-horizontal"
     inkscape:pagecheckerboard="true">
    <inkscape:grid
       type="xygrid"
       id="grid828" />
  </sodipodi:namedview>
  <style
     type="text/css"
     id="current-color-scheme">
        .ColorScheme-Text {
            color:#232629;
        }
    </style>
  <g
     id="transform-move"
     style="fill:#88aa00;stroke:#445500;stroke-width:0.7;stroke-miterlimit:3.13807011;stroke-dasharray:none">
    <path
       id="path2-33-67"
       d="M 8,1 6,3 h 4 z M 8,5 A 3,3 0 0 0 5,8 3,3 0 0 0 8,11 3,3 0 0 0 11,8 3,3 0 0 0 8,5 Z M 3,6 1,8 3,10 Z M 8,6 A 2,2 0 0 1 10,8 2,2 0 0 1 8,10 2,2 0 0 1 6,8 2,2 0 0 1 8,6 Z m 5,0 v 4 l 2,-2 z m -7,7 2,2 2,-2 z"
       style="clip-rule:evenodd;fill:#88aa00;fill-rule:evenodd;stroke-linejoin:round;stroke-miterlimit:3.13807011;stroke:#445500;stroke-width:0.7;stroke-dasharray:none"
       inkscape:connector-curvature="0" />
  </g>
  <g
     id="transform-move-vertical"
     transform="translate(16)"
     style="fill:#88aa00;stroke:#445500;stroke-width:0.7;stroke-miterlimit:3.13807011;stroke-dasharray:none">
    <path
       inkscape:connector-curvature="0"
       id="path2-33-67-5"
       d="M 8,1 6,3 h 4 z M 8,5 C 6.3431458,5 5,6.3431458 5,8 5,9.6568542 6.3431458,11 8,11 9.6568542,11 11,9.6568542 11,8 11,6.3431458 9.6568542,5 8,5 Z m 0,1 c 1.1045695,0 2,0.8954305 2,2 0,1.1045695 -0.8954305,2 -2,2 C 6.8954305,10 6,9.1045695 6,8 6,6.8954305 6.8954305,6 8,6 Z m -2,7 2,2 2,-2 z"
       style="clip-rule:evenodd;fill:#88aa00;fill-rule:evenodd;stroke-linejoin:round;stroke-miterlimit:3.13807011;stroke:#445500;stroke-width:0.7;stroke-dasharray:none"
       sodipodi:nodetypes="ccccsssssssssscccc" />
  </g>
  <g
     id="transform-move-horizontal"
     transform="translate(32)"
     style="fill:#88aa00;stroke:#445500">
    <path
       inkscape:connector-curvature="0"
       id="path2-33-67-5-1"
       d="M 8,5 C 6.3431458,5 5,6.3431458 5,8 5,9.6568542 6.3431458,11 8,11 9.6568542,11 11,9.6568542 11,8 11,6.3431458 9.6568542,5 8,5 Z M 3,6 1,8 3,10 Z m 5,0 c 1.1045695,0 2,0.8954305 2,2 0,1.1045695 -0.8954305,2 -2,2 C 6.8954305,10 6,9.1045695 6,8 6,6.8954305 6.8954305,6 8,6 Z m 5,0 v 4 l 2,-2 z"
       style="clip-rule:evenodd;fill:#88aa00;fill-rule:evenodd;stroke-linejoin:round;stroke-miterlimit:3.13807011;stroke:#445500;stroke-width:0.7;stroke-dasharray:none"
       sodipodi:nodetypes="sssssccccssssscccc" />
  </g>
</svg>
