<?xml version="1.0" encoding="UTF-8" standalone="no"?>
<!-- Generator: Adobe Illustrator 22.1.0, SVG Export Plug-In . SVG Version: 6.00 Build 0)  -->

<svg
   xmlns:dc="http://purl.org/dc/elements/1.1/"
   xmlns:cc="http://creativecommons.org/ns#"
   xmlns:rdf="http://www.w3.org/1999/02/22-rdf-syntax-ns#"
   xmlns:svg="http://www.w3.org/2000/svg"
   xmlns="http://www.w3.org/2000/svg"
   xmlns:sodipodi="http://sodipodi.sourceforge.net/DTD/sodipodi-0.dtd"
   xmlns:inkscape="http://www.inkscape.org/namespaces/inkscape"
   version="1.1"
   id="Layer_1"
   x="0px"
   y="0px"
   viewBox="0 0 245 240"
   style="enable-background:new 0 0 245 240;"
   xml:space="preserve"
   sodipodi:docname="Discord.svg"
   inkscape:version="0.92.4 (5da689c313, 2019-01-14)"><metadata
   id="metadata13"><rdf:RDF><cc:Work
       rdf:about=""><dc:format>image/svg+xml</dc:format><dc:type
         rdf:resource="http://purl.org/dc/dcmitype/StillImage" /></cc:Work></rdf:RDF></metadata><defs
   id="defs11" /><sodipodi:namedview
   pagecolor="#ffffff"
   bordercolor="#666666"
   borderopacity="1"
   objecttolerance="10"
   gridtolerance="10"
   guidetolerance="10"
   inkscape:pageopacity="0"
   inkscape:pageshadow="2"
   inkscape:window-width="1920"
   inkscape:window-height="873"
   id="namedview9"
   showgrid="false"
   inkscape:zoom="0.98333333"
   inkscape:cx="-214.61864"
   inkscape:cy="120"
   inkscape:window-x="0"
   inkscape:window-y="54"
   inkscape:window-maximized="1"
   inkscape:current-layer="Layer_1" />
<style
   type="text/css"
   id="style2">
	.st0{fill:#7289DA;}
</style>
<path
   style="fill:#88aa00;stroke:#445500;stroke-width:0.7;stroke-miterlimit:2.15300703;stroke-dasharray:none;stroke-opacity:1;fill-opacity:1"
   d="M 107.19922 66.599609 C 107.19922 66.599609 93.499609 66.299609 79.099609 77.099609 C 79.099609 77.099609 64.699219 103.20039 64.699219 135.40039 C 64.699219 135.40039 73.099219 149.89961 95.199219 150.59961 C 95.199219 150.59961 98.900392 146.10078 101.90039 142.30078 C 89.200392 138.50078 84.400391 130.5 84.400391 130.5 C 84.400391 130.5 85.399219 131.19922 87.199219 132.19922 C 87.299219 132.29922 87.399609 132.4 87.599609 132.5 C 87.899609 132.7 88.2 132.8 88.5 133 C 91 134.4 93.500781 135.50039 95.800781 136.40039 C 99.900781 138.00039 104.8 139.59922 110.5 140.69922 C 118 142.09922 126.80039 142.60078 136.40039 140.80078 C 141.10039 140.00078 145.90039 138.6 150.90039 136.5 C 154.40039 135.2 158.30039 133.29961 162.40039 130.59961 C 162.40039 130.59961 157.40078 138.8 144.30078 142.5 C 147.30078 146.3 150.90039 150.59961 150.90039 150.59961 C 173.00039 149.89961 181.5 135.40039 181.5 135.40039 C 181.5 103.20039 167.09961 77.099609 167.09961 77.099609 C 152.69961 66.299609 139 66.599609 139 66.599609 L 137.59961 68.199219 C 154.59961 73.399219 162.5 80.900391 162.5 80.900391 C 152.1 75.200391 141.90039 72.400781 132.40039 71.300781 C 125.20039 70.500781 118.29922 70.7 112.19922 71.5 C 111.59922 71.5 111.1 71.599219 110.5 71.699219 C 107 71.999219 98.500781 73.3 87.800781 78 C 84.100781 79.7 81.900391 80.900391 81.900391 80.900391 C 81.900391 80.900391 90.199218 73.000781 108.19922 67.800781 L 107.19922 66.599609 z M 104.40039 103.90039 C 110.10039 103.90039 114.69961 108.9 114.59961 115 C 114.59961 121.1 110.10039 126.09961 104.40039 126.09961 C 98.800391 126.09961 94.199219 121.1 94.199219 115 C 94.199219 108.9 98.700391 103.90039 104.40039 103.90039 z M 140.90039 103.90039 C 146.60039 103.90039 151.09961 108.9 151.09961 115 C 151.09961 121.1 146.60039 126.09961 140.90039 126.09961 C 135.30039 126.09961 130.69922 121.1 130.69922 115 C 130.69922 108.9 135.20039 103.90039 140.90039 103.90039 z "
   id="rect820" />

<ellipse
   style="fill:#5f5fd3;fill-opacity:1;stroke:#161650;stroke-width:0.69999999;stroke-miterlimit:2.15300703;stroke-dasharray:none;stroke-opacity:1"
   id="path865"
   cx="160.67796"
   cy="69.152542"
   rx="15.254237"
   ry="16.271187" /></svg>