<?xml version="1.0" encoding="UTF-8" standalone="no"?>
<!-- Created using Karbon, part of Calligra: http://www.calligra.org/karbon -->

<svg
   xmlns:dc="http://purl.org/dc/elements/1.1/"
   xmlns:cc="http://creativecommons.org/ns#"
   xmlns:rdf="http://www.w3.org/1999/02/22-rdf-syntax-ns#"
   xmlns:svg="http://www.w3.org/2000/svg"
   xmlns="http://www.w3.org/2000/svg"
   xmlns:xlink="http://www.w3.org/1999/xlink"
   xmlns:sodipodi="http://sodipodi.sourceforge.net/DTD/sodipodi-0.dtd"
   xmlns:inkscape="http://www.inkscape.org/namespaces/inkscape"
   width="25.6pt"
   height="25.6pt"
   version="1.1"
   id="svg57"
   sodipodi:docname="start.svg"
   inkscape:version="0.92.4 (5da689c313, 2019-01-14)">
  <metadata
     id="metadata61">
    <rdf:RDF>
      <cc:Work
         rdf:about="">
        <dc:format>image/svg+xml</dc:format>
        <dc:type
           rdf:resource="http://purl.org/dc/dcmitype/StillImage" />
        <dc:title />
      </cc:Work>
    </rdf:RDF>
  </metadata>
  <sodipodi:namedview
     pagecolor="#ffffff"
     bordercolor="#666666"
     borderopacity="1"
     objecttolerance="10"
     gridtolerance="10"
     guidetolerance="10"
     inkscape:pageopacity="0"
     inkscape:pageshadow="2"
     inkscape:window-width="1920"
     inkscape:window-height="873"
     id="namedview59"
     showgrid="false"
     inkscape:zoom="6.9140624"
     inkscape:cx="-8.0646111"
     inkscape:cy="-0.33007449"
     inkscape:window-x="0"
     inkscape:window-y="54"
     inkscape:window-maximized="1"
     inkscape:current-layer="svg57"
     showguides="true"
     inkscape:guide-bbox="true">
    <sodipodi:guide
       position="14.463277,60.456498"
       orientation="0,1"
       id="guide4655"
       inkscape:locked="false" />
  </sodipodi:namedview>
  <defs
     id="defs37">
    <linearGradient
       id="gradient0"
       gradientTransform="translate(-32, -315.65)"
       gradientUnits="objectBoundingBox"
       x1="1.45454545455"
       y1="15.34772727273"
       x2="2.45454545455"
       y2="14.34772727273"
       spreadMethod="pad">
      <stop
         stop-color="#248052"
         offset="0.00000000000"
         stop-opacity="1.00000000000"
         id="stop2" />
      <stop
         stop-color="#0e44b2"
         offset="1.00000000000"
         stop-opacity="1.00000000000"
         id="stop4" />
    </linearGradient>
    <linearGradient
       id="gradient1"
       gradientTransform="translate(-33, -316.65)"
       gradientUnits="objectBoundingBox"
       x1="1.60000000000"
       y1="16.88250000000"
       x2="2.70000000000"
       y2="15.78250000000"
       spreadMethod="pad">
      <stop
         stop-color="#2ab672"
         offset="0.00000000000"
         stop-opacity="1.00000000000"
         id="stop7" />
      <stop
         stop-color="#127aee"
         offset="1.00000000000"
         stop-opacity="1.00000000000"
         id="stop9" />
    </linearGradient>
    <linearGradient
       id="gradient2"
       gradientTransform="matrix(2.6997 0 0 2.6997 -12.8067 -778.02)"
       gradientUnits="objectBoundingBox"
       x1="0.25041525872"
       y1="14.76731011351"
       x2="0.59436248161"
       y2="14.42330288936"
       spreadMethod="pad">
      <stop
         stop-color="#2ab672"
         offset="0.00000000000"
         stop-opacity="1.00000000000"
         id="stop12" />
      <stop
         stop-color="#127aee"
         offset="1.00000000000"
         stop-opacity="1.00000000000"
         id="stop14" />
    </linearGradient>
    <linearGradient
       id="gradient3"
       gradientUnits="userSpaceOnUse"
       x1="34.133335"
       y1="360.16001"
       x2="57.600003"
       y2="336.69334"
       spreadMethod="pad"
       gradientTransform="matrix(0.93749995,0,0,0.93749995,8,56)">
      <stop
         stop-color="#248052"
         offset="0.00000000000"
         stop-opacity="1.00000000000"
         id="stop17" />
      <stop
         stop-color="#0e44b2"
         offset="1.00000000000"
         stop-opacity="1.00000000000"
         id="stop19" />
    </linearGradient>
    <linearGradient
       id="gradient4"
       gradientUnits="userSpaceOnUse"
       x1="34.133335"
       y1="360.16"
       x2="57.600001"
       y2="336.69334"
       spreadMethod="pad"
       gradientTransform="matrix(0.9375,0,0,0.9375,9,57)">
      <stop
         stop-color="#2ab672"
         offset="0.00000000000"
         stop-opacity="1.00000000000"
         id="stop22" />
      <stop
         stop-color="#127aee"
         offset="1.00000000000"
         stop-opacity="1.00000000000"
         id="stop24" />
    </linearGradient>
    <linearGradient
       id="gradient5"
       gradientUnits="userSpaceOnUse"
       x1="-21"
       y1="321.64999"
       x2="9.0000004"
       y2="291.64999"
       spreadMethod="pad"
       gradientTransform="translate(1,1)">
      <stop
         stop-color="#248052"
         offset="0.00000000000"
         stop-opacity="1.00000000000"
         id="stop27" />
      <stop
         stop-color="#0e44b2"
         offset="1.00000000000"
         stop-opacity="1.00000000000"
         id="stop29" />
    </linearGradient>
    <linearGradient
       id="gradient6"
       gradientUnits="userSpaceOnUse"
       x1="5.0082"
       y1="295.34"
       x2="11.887"
       y2="288.46001"
       spreadMethod="pad"
       gradientTransform="translate(2,2)">
      <stop
         stop-color="#2ab672"
         offset="0.00000000000"
         stop-opacity="1.00000000000"
         id="stop32" />
      <stop
         stop-color="#127aee"
         offset="1.00000000000"
         stop-opacity="1.00000000000"
         id="stop34" />
    </linearGradient>
    <linearGradient
       inkscape:collect="always"
       xlink:href="#linearGradient921"
       id="linearGradient923"
       x1="-21"
       y1="321.64999"
       x2="9"
       y2="291.64999"
       gradientUnits="userSpaceOnUse"
       gradientTransform="translate(22,-290.64999)" />
    <linearGradient
       inkscape:collect="always"
       id="linearGradient921">
      <stop
         style="stop-color:#248052;stop-opacity:1"
         offset="0"
         id="stop917" />
      <stop
         style="stop-color:#0e44b2;stop-opacity:1"
         offset="1"
         id="stop919" />
    </linearGradient>
    <linearGradient
       inkscape:collect="always"
       xlink:href="#linearGradient4582"
       id="linearGradient852"
       x1="5.008184"
       y1="295.33688"
       x2="11.887351"
       y2="288.45773"
       gradientUnits="userSpaceOnUse"
       gradientTransform="matrix(3.7795275,0,0,3.7795275,-15.928569,-1087.2339)" />
    <linearGradient
       id="linearGradient4582"
       inkscape:collect="always">
      <stop
         id="stop4578"
         offset="0"
         style="stop-color:#2ab672;stop-opacity:1" />
      <stop
         id="stop4580"
         offset="1"
         style="stop-color:#127aee;stop-opacity:1" />
    </linearGradient>
    <linearGradient
       inkscape:collect="always"
       xlink:href="#linearGradient4582"
       id="linearGradient852-2"
       x1="5.008184"
       y1="295.33688"
       x2="11.887351"
       y2="288.45773"
       gradientUnits="userSpaceOnUse"
       gradientTransform="matrix(2.6996625,0,0,2.6996625,-6.762406,-744.02419)" />
    <linearGradient
       gradientTransform="translate(-32,-315.64999)"
       inkscape:collect="always"
       xlink:href="#linearGradient921"
       id="linearGradient1454"
       x1="32"
       y1="337.64999"
       x2="54"
       y2="315.64999"
       gradientUnits="userSpaceOnUse" />
    <linearGradient
       inkscape:collect="always"
       xlink:href="#linearGradient921"
       id="linearGradient1049"
       gradientUnits="userSpaceOnUse"
       gradientTransform="translate(-26.999738,-282.64999)"
       x1="32"
       y1="337.64999"
       x2="54"
       y2="315.64999" />
    <linearGradient
       gradientTransform="matrix(0.72727273,0,0,0.72727273,8.7272727,110.08636)"
       inkscape:collect="always"
       xlink:href="#linearGradient921"
       id="linearGradient1454-9"
       x1="32"
       y1="337.64999"
       x2="54"
       y2="315.64999"
       gradientUnits="userSpaceOnUse" />
    <linearGradient
       gradientTransform="matrix(0.7,0,0,0.7,9.9,118.99499)"
       inkscape:collect="always"
       xlink:href="#linearGradient4582"
       id="linearGradient1454-6-3"
       x1="32"
       y1="337.64999"
       x2="54"
       y2="315.64999"
       gradientUnits="userSpaceOnUse" />
    <linearGradient
       inkscape:collect="always"
       xlink:href="#linearGradient921"
       id="linearGradient1454-3"
       x1="32"
       y1="337.64999"
       x2="54"
       y2="315.64999"
       gradientUnits="userSpaceOnUse" />
    <linearGradient
       gradientTransform="translate(-27,-282.64999)"
       inkscape:collect="always"
       xlink:href="#linearGradient4582"
       id="linearGradient1454-6"
       x1="32"
       y1="337.64999"
       x2="54"
       y2="315.64999"
       gradientUnits="userSpaceOnUse" />
    <linearGradient
       inkscape:collect="always"
       xlink:href="#linearGradient4582"
       id="linearGradient852-2-5"
       x1="5.008184"
       y1="295.33688"
       x2="11.887351"
       y2="288.45773"
       gradientUnits="userSpaceOnUse"
       gradientTransform="matrix(2.6996625,0,0,2.6996625,20.237332,-461.3742)" />
    <filter
       inkscape:collect="always"
       style="color-interpolation-filters:sRGB"
       id="filter897"
       x="-0.036"
       width="1.072"
       y="-0.036"
       height="1.072">
      <feGaussianBlur
         inkscape:collect="always"
         stdDeviation="0.3"
         id="feGaussianBlur899" />
    </filter>
  </defs>
  <rect
     style="fill:#000000;fill-opacity:0"
     y="0"
     x="0"
     height="25.6pt"
     width="25.6pt"
     id="shape11" />
  <g
     inkscape:groupmode="layer"
     id="layer1"
     inkscape:label="start-here-kde"
     sodipodi:insensitive="true">
    <g
       style=""
       id="g883">
      <path
         inkscape:connector-curvature="0"
         style="fill:url(#gradient5)"
         d="m 3,1 h 26 c 1.108,0 2,0.892 2,2 v 26 c 0,1.108 -0.892,2 -2,2 H 3 C 1.892,31 1,30.108 1,29 V 3 C 1,1.892 1.892,1 3,1 Z"
         id="shape9" />
      <path
         inkscape:connector-curvature="0"
         style="fill:url(#gradient6)"
         d="m 3,2 h 26 c 0.554,0 1,0.446 1,1 v 26 c 0,0.554 -0.446,1 -1,1 H 3 C 2.446,30 2,29.554 2,29 V 3 C 2,2.446 2.446,2 3,2 Z"
         id="shape10" />
      <path
         inkscape:connector-curvature="0"
         style="opacity:1;fill:url(#linearGradient923);fill-opacity:1;stroke:none;stroke-width:2.39314151;stroke-linecap:round;stroke-linejoin:round;stroke-miterlimit:4;stroke-dasharray:none;stroke-opacity:1"
         d="m 3,1 h 26 c 1.108,0 2,0.892 2,2 v 26 c 0,1.108 -0.892,2 -2,2 H 3 C 1.892,31 1,30.108 1,29 V 3 C 1,1.892 1.892,1 3,1 Z"
         id="rect843" />
      <path
         inkscape:connector-curvature="0"
         style="opacity:1;fill:url(#linearGradient852);fill-opacity:1;stroke:none;stroke-width:2.23359871;stroke-linecap:round;stroke-linejoin:round;stroke-miterlimit:4;stroke-dasharray:none;stroke-opacity:1"
         d="m 3,2 h 26 c 0.553999,0 1,0.446 1,1 v 26 c 0,0.554 -0.446001,1 -1,1 H 3 C 2.446,30 2,29.554 2,29 V 3 C 2,2.446 2.446,2 3,2 Z"
         id="rect843-3" />
      <path
         id="shape12"
         d="M 17.78442,7.6654 C 17.65742,11.43731 11.36983,8.81739 14.264232,6.192488 15.56294,5.055558 17.84504,6.00031 17.78442,7.6654 Z"
         inkscape:connector-curvature="0"
         style="fill:#000080" />
      <path
         id="shape13"
         stroke-miterlimit="2.00000000000"
         d="m 27.06975,9.78837 c 0.3205,1.10222 -0.6507,1.28442 -1.5332,1.52975 -2.1616,0.728 -4.3232,1.456 -6.4847,2.184 0.0443,1.27393 -0.0869,2.58648 0.0623,3.83727 1.5486,3.07588 3.0973,6.15178 4.646,9.22778 -0.9777,0.2205 -1.7068,-0.0461 -2.1065,-0.9585 -1.8462,-2.4546 -3.6925,-4.9093 -5.5388,-7.36381 -1.74038,2.77421 -3.48076,5.54821 -5.22114,8.32251 -1.44218,0.378 -0.68807,-0.773 -0.44511,-1.5681 0.83334,-2.5383 1.78285,-5.0581 2.5445,-7.60762 0.015,-1.31138 0.03001,-2.6228 0.04501,-3.93409 C 10.41207,12.57759 7.78588,11.69765 5.1599214,10.81769 4.750659,9.544668 5.834575,9.8800108 6.72497,10.006914 c 3.06954,0.299424 6.13877,0.76299 9.20848,0.959636 3.7124,-0.392627 7.4244,-0.785253 11.1368,-1.1778784 z"
         inkscape:connector-curvature="0"
         style="fill:#000080;stroke:#000000;stroke-width:0.29666999;stroke-linecap:butt;stroke-linejoin:miter;stroke-miterlimit:2" />
    </g>
  </g>
  <g
     inkscape:groupmode="layer"
     id="layer2"
     inkscape:label="16-16-start-here-kde"
     sodipodi:insensitive="true">
    <g
       style="fill:none"
       id="16-16-start-here-kde-1"
       transform="translate(-24,-283.64999)">
      <rect
         style="opacity:1;vector-effect:none;fill:url(#linearGradient1454-9);fill-opacity:1;stroke:none;stroke-width:1.4545455;stroke-linecap:round;stroke-linejoin:round;stroke-miterlimit:4;stroke-dasharray:none;stroke-dashoffset:0;stroke-opacity:1"
         id="rect1446-6"
         width="16"
         height="16"
         x="32"
         y="339.64999"
         ry="1" />
      <rect
         style="opacity:1;vector-effect:none;fill:url(#linearGradient1454-6-3);fill-opacity:1;stroke:none;stroke-width:1.39999998;stroke-linecap:round;stroke-linejoin:round;stroke-miterlimit:4;stroke-dasharray:none;stroke-dashoffset:0;stroke-opacity:1"
         id="rect1446-4-8"
         width="14"
         height="13.999997"
         x="33"
         y="340.64999" />
    </g>
    <path
       style="fill:#000080"
       inkscape:connector-curvature="0"
       d="m 16.85203,59.18285 c 0.07152,1.27963 -1.983317,1.45825 -2.129265,0.18388 -0.282543,-1.227928 1.667575,-1.779277 2.056295,-0.575922 0.04811,0.124662 0.07293,0.258353 0.07287,0.392022 z"
       id="shape7" />
    <path
       style="fill:#000080;stroke:#000000;stroke-width:0.29666999;stroke-linecap:butt;stroke-linejoin:miter;stroke-miterlimit:2"
       inkscape:connector-curvature="0"
       d="m 21.5904,60.342246 c 0.1218,1.018534 -1.33941,0.830445 -1.9792,1.268514 -0.62923,0.40796 -1.93025,0.32679 -2.1264,1.0501 -0.04507,1.01994 -0.07207,2.03558 0.54097,2.90082 0.62326,1.32469 1.24652,2.64943 1.86975,3.97398 -0.97576,0.33719 -1.18959,-0.92336 -1.74343,-1.47103 -0.72371,-1.02967 -1.44743,-2.05938 -2.17114,-3.08891 -0.89111,1.52002 -1.78221,3.03999 -2.67332,4.56006 -1.03846,0.13462 0.15294,-1.39198 0.14234,-2.02318 0.46171,-1.51935 1.14609,-3.00098 0.95,-4.63179 0.15166,-0.98805 -1.33706,-0.7935 -1.95069,-1.22983 -0.63175,-0.434506 -2.070078,-0.28076 -2.07748,-1.170626 0.603759,-0.193295 1.6831,0.16165 2.4701,0.179492 1.60713,0.208731 3.21414,0.477938 4.82273,0.126674 1.30855,-0.148104 2.61717,-0.296213 3.92567,-0.44432 z"
       stroke-miterlimit="2.00000000000"
       id="shape8" />
  </g>
  <g
     inkscape:groupmode="layer"
     id="layer3"
     inkscape:label="22-22-start-here-kde"
     sodipodi:insensitive="true">
    <path
       style="opacity:1;vector-effect:none;fill:url(#linearGradient1454-6);fill-opacity:1;stroke:none;stroke-width:2;stroke-linecap:round;stroke-linejoin:round;stroke-miterlimit:4;stroke-dasharray:none;stroke-dashoffset:0;stroke-opacity:1"
       d="m 7,34 h 18 c 0.554,0 1,0.446 1,1 v 18 c 0,0.554 -0.446,1 -1,1 H 7 C 6.446,54 6,53.554 6,53 V 35 c 0,-0.554 0.446,-1 1,-1 z"
       id="rect1446-4"
       inkscape:connector-curvature="0" />
    <g
       style=""
       id="g908">
      <path
         style="fill:url(#linearGradient1454-3);opacity:1;vector-effect:none;fill-opacity:1;stroke:none;stroke-width:2;stroke-linecap:round;stroke-linejoin:round;stroke-miterlimit:4;stroke-dasharray:none;stroke-dashoffset:0;stroke-opacity:1"
         d="m 34,315.64999 h 18 c 1.108,0 2,0.892 2,2 v 18 c 0,1.108 -0.892,2 -2,2 H 34 c -1.108,0 -2,-0.892 -2,-2 v -18 c 0,-1.108 0.892,-2 2,-2 z"
         id="rect1446-2"
         inkscape:connector-curvature="0"
         transform="translate(-27,-282.64999)" />
      <path
         inkscape:connector-curvature="0"
         style="fill:url(#linearGradient852-2-5);opacity:1;fill-opacity:1;stroke:none;stroke-width:1.59542763;stroke-linecap:round;stroke-linejoin:round;stroke-miterlimit:4;stroke-dasharray:none;stroke-opacity:1"
         d="m 33.757738,316.64999 h 18.571428 c 0.395714,0 0.714286,0.31857 0.714286,0.71429 v 18.57142 c 0,0.39572 -0.318572,0.71429 -0.714286,0.71429 H 33.757738 c -0.395714,0 -0.714286,-0.31857 -0.714286,-0.71429 v -18.57142 c 0,-0.39572 0.318572,-0.71429 0.714286,-0.71429 z"
         id="rect843-3-3-9"
         transform="translate(-27,-282.64999)" />
      <path
         style="fill:#000080"
         inkscape:connector-curvature="0"
         d="m 17.17127,37.98764 c 0.08774,1.56536 -2.195768,2.02829 -2.645666,0.5321 -0.630372,-1.474847 1.470746,-2.780281 2.348856,-1.444926 0.19132,0.257216 0.29745,0.584426 0.2967,0.912826 z"
         id="shape3" />
      <path
         style="fill:#000080;stroke:#000000;stroke-width:0.29666999;stroke-linecap:butt;stroke-linejoin:miter;stroke-miterlimit:2"
         inkscape:connector-curvature="0"
         d="m 23.26575,39.521144 c 0.2823,1.136136 -1.0522,0.981366 -1.6907,1.382396 -1.1874,0.44825 -2.3748,0.8965 -3.5623,1.34475 0.05786,1.33158 -0.25835,2.75541 0.52997,3.90705 0.85153,1.8957 1.70303,3.79136 2.55453,5.68706 -0.9997,0.3902 -1.3271,-0.6964 -1.8362,-1.3837 -1.0575,-1.57594 -2.11484,-3.15172 -3.17245,-4.72778 -1.14016,2.03717 -2.28033,4.07428 -3.42049,6.11148 -1.22287,0.2947 -0.08107,-1.256 -0.05286,-1.9376 0.44303,-1.71819 1.18903,-3.38253 1.43164,-5.13624 -0.08122,-0.83134 0.19677,-1.93391 -0.10168,-2.60123 -1.67782,-0.6302 -3.35565,-1.26038 -5.0333675,-1.890563 -0.3010585,-1.283952 1.2006675,-0.391191 1.8821175,-0.488878 2.20106,0.156025 4.40089,0.861391 6.6036,0.428915 1.95609,-0.231902 3.91209,-0.463803 5.86819,-0.695704 z"
         stroke-miterlimit="2.00000000000"
         id="shape4" />
    </g>
  </g>
</svg>
